<?xml version="1.0" encoding="UTF-8" standalone="no"?>
<svg width="40px" height="40px" viewBox="0 0 40 40" version="1.1" xmlns="http://www.w3.org/2000/svg" xmlns:xlink="http://www.w3.org/1999/xlink">
    <!-- Generator: Sketch 39.1 (31720) - http://www.bohemiancoding.com/sketch -->
    <title>facebook@1x</title>
    <desc>Created with Sketch.</desc>
    <defs></defs>
    <g id="Page-1" stroke="none" stroke-width="1" fill="none" fill-rule="evenodd">
        <g id="MAD-MAX" transform="translate(-410.000000, -1335.000000)" fill="#000000">
            <g id="Group-2" transform="translate(410.000000, 1335.000000)">
                <path d="M20,0 C14.47914,0 9.765645,1.953105 5.859375,5.859375 C1.9531055,9.765645 0,14.47914 0,20 C0,25.52086 1.9531055,30.234355 5.859375,34.140625 C9.765645,38.0468945 14.47914,40 20,40 C25.52086,40 30.234355,38.0468945 34.140625,34.140625 C38.046895,30.234355 40,25.52086 40,20 C40,14.47914 38.046895,9.765645 34.140625,5.859375 C30.234355,1.953105 25.52086,0 20,0 L20,0 Z M25.15625,20 L21.875,20 L21.875,32.03125 L17.421875,32.03125 L17.421875,20 L14.375,20 L14.375,15.859375 L17.421875,15.859375 L17.421875,13.4375 C17.421875,11.614575 17.760415,10.2474 18.4375,9.33594 C19.114585,8.424475 20.390615,7.96875 22.265625,7.96875 L25.546875,7.96875 L25.546875,12.109375 L23.515625,12.109375 C22.786455,12.109375 22.33073,12.23958 22.14844,12.5 C21.966145,12.76042 21.875,13.20312 21.875,13.828125 L21.875,15.859375 L25.625,15.859375 L25.15625,20 Z" id="facebook"></path>
            </g>
        </g>
    </g>
</svg>