<?xml version="1.0" encoding="UTF-8" standalone="no"?>
<svg width="40px" height="40px" viewBox="0 0 40 40" version="1.1" xmlns="http://www.w3.org/2000/svg" xmlns:xlink="http://www.w3.org/1999/xlink">
    <!-- Generator: Sketch 39.1 (31720) - http://www.bohemiancoding.com/sketch -->
    <title>google@1x</title>
    <desc>Created with Sketch.</desc>
    <defs></defs>
    <g id="Page-1" stroke="none" stroke-width="1" fill="none" fill-rule="evenodd">
        <g id="MAD-MAX" transform="translate(-530.000000, -1335.000000)" fill="#000000">
            <g id="Group-2" transform="translate(410.000000, 1335.000000)">
                <path d="M140,0 C134.47914,0 129.765645,1.953105 125.859375,5.859375 C121.953106,9.765645 120,14.47914 120,20 C120,25.52086 121.953106,30.234355 125.859375,34.140625 C129.765645,38.0468945 134.47914,40 140,40 C145.52086,40 150.234355,38.0468945 154.140625,34.140625 C158.046895,30.234355 160,25.52086 160,20 C160,14.47914 158.046895,9.765645 154.140625,5.859375 C150.234355,1.953105 145.52086,0 140,0 L140,0 Z M134.453125,33.4375 C132.161445,33.4375 130.22136,33.007815 128.63281,32.14844 C127.044265,31.28906 126.25,30.156255 126.25,28.75 C126.25,27.29166 127.01822,25.97657 128.55469,24.80469 C130.091155,23.632805 131.927075,23.046875 134.0625,23.046875 L134.80469,23.046875 L135.46875,23.046875 C134.73958,22.317705 134.375,21.562505 134.375,20.78125 C134.375,20.3125 134.505205,19.81771 134.765625,19.296875 C134.55729,19.34896 134.32292,19.375 134.0625,19.375 C132.29166,19.375 130.83334,18.81511 129.6875,17.69531 C128.54166,16.575515 127.96875,15.20834 127.96875,13.59375 C127.96875,12.03124 128.67187,10.66407 130.078125,9.49219 C131.48438,8.320305 133.09895,7.734375 134.921875,7.734375 L142.890625,7.734375 L141.09375,8.984375 L138.59375,8.984375 C139.375005,9.296875 140,9.88281 140.46875,10.74219 C140.9375,11.601565 141.171875,12.55208 141.171875,13.59375 C141.171875,15.20834 140.416675,16.588535 138.90625,17.734375 C138.281245,18.25521 137.864585,18.658855 137.65625,18.94531 C137.447915,19.23177 137.34375,19.609375 137.34375,20.078125 C137.34375,20.70313 138.04687,21.51041 139.453125,22.5 C140.494795,23.281255 141.223955,24.049475 141.640625,24.80469 C142.057295,25.5599 142.265625,26.53645 142.265625,27.734375 C142.265625,29.2448 141.562505,30.57291 140.15625,31.71875 C138.749995,32.86459 136.84897,33.4375 134.453125,33.4375 L134.453125,33.4375 Z M155,17.578125 L150,17.578125 L150,22.5 L147.5,22.5 L147.5,17.578125 L142.5,17.578125 L142.5,15 L147.5,15 L147.5,10 L150,10 L150,15 L155,15 L155,17.578125 Z M136.953125,24.0625 C136.27604,23.854165 135.59896,23.75 134.921875,23.75 C133.41145,23.75 132.07032,24.166665 130.89844,25 C129.726555,25.83334 129.140625,26.79687 129.140625,27.890625 C129.140625,29.08855 129.63541,30.104165 130.625,30.9375 C131.61459,31.770835 132.864575,32.1875 134.375,32.1875 C138.28127,32.1875 140.234375,30.807305 140.234375,28.046875 C140.234375,27.786455 140.18229,27.5 140.078125,27.1875 C140.078125,27.03125 140.039065,26.875 139.96094,26.71875 C139.88281,26.5625 139.765625,26.39323 139.609375,26.21094 C139.453125,26.028645 139.322915,25.885415 139.21875,25.78125 C139.114585,25.677085 138.958335,25.546875 138.75,25.390625 C138.541665,25.234375 138.372395,25.104165 138.24219,25 C138.11198,24.895835 137.890625,24.739585 137.578125,24.53125 C137.265625,24.322915 137.05729,24.166665 136.953125,24.0625 L136.953125,24.0625 Z M138.28125,13.75 C138.125,12.395825 137.61719,11.250005 136.75781,10.3125 C135.898435,9.374995 134.94792,8.89323 133.90625,8.86719 C132.86458,8.841145 132.044275,9.28385 131.44531,10.19531 C130.84635,11.106775 130.63802,12.226555 130.82031,13.55469 C131.002605,14.88282 131.523435,16.04166 132.38281,17.03125 C133.24219,18.02084 134.17968,18.528645 135.19531,18.55469 C136.210945,18.58073 137.018225,18.125005 137.61719,17.1875 C138.21615,16.249995 138.4375,15.104175 138.28125,13.75 L138.28125,13.75 Z" id="google"></path>
            </g>
        </g>
    </g>
</svg>