<?xml version="1.0" encoding="UTF-8" standalone="no"?>
<svg width="40px" height="40px" viewBox="0 0 40 40" version="1.1" xmlns="http://www.w3.org/2000/svg" xmlns:xlink="http://www.w3.org/1999/xlink">
    <!-- Generator: Sketch 39.1 (31720) - http://www.bohemiancoding.com/sketch -->
    <title>instagram@1x</title>
    <desc>Created with Sketch.</desc>
    <defs></defs>
    <g id="Page-1" stroke="none" stroke-width="1" fill="none" fill-rule="evenodd">
        <g id="MAD-MAX" transform="translate(-590.000000, -1335.000000)" fill="#000000">
            <g id="Group-2" transform="translate(410.000000, 1335.000000)">
                <path d="M200,0 C194.47914,0 189.765645,1.953105 185.859375,5.859375 C181.953105,9.765645 180,14.47914 180,20 C180,25.52086 181.953105,30.234355 185.859375,34.140625 C189.765645,38.0468945 194.47914,40 200,40 C205.52086,40 210.234355,38.0468945 214.140625,34.140625 C218.046895,30.234355 220,25.52086 220,20 C220,14.47914 218.046895,9.765645 214.140625,5.859375 C210.234355,1.953105 205.52086,0 200,0 L200,0 Z M213,32.0625 C213,32.32292 212.908855,32.54427 212.72656,32.72656 C212.54427,32.908855 212.32292,33 212.0625,33 L188.9375,33 C188.67708,33 188.45573,32.908855 188.27344,32.72656 C188.091145,32.54427 188,32.32292 188,32.0625 L188,8.9375 C188,8.67708 188.091145,8.45573 188.27344,8.27344 C188.45573,8.091145 188.67708,8 188.9375,8 L212.0625,8 C212.32292,8 212.54427,8.091145 212.72656,8.27344 C212.908855,8.45573 213,8.67708 213,8.9375 L213,32.0625 Z M195,20 C195,21.354175 195.494785,22.526035 196.484375,23.515625 C197.473965,24.505215 198.645825,25 200,25 C201.354175,25 202.526035,24.505215 203.515625,23.515625 C204.505215,22.526035 205,21.354175 205,20 C205,18.645825 204.505215,17.473965 203.515625,16.484375 C202.526035,15.494785 201.354175,15 200,15 C198.645825,15 197.473965,15.494785 196.484375,16.484375 C195.494785,17.473965 195,18.645825 195,20 L195,20 Z M205,15 L210,15 L210,10 L205,10 L205,15 Z M207.421875,20.2222222 C207.421875,22.2083431 206.692715,23.9143453 205.234375,25.3402778 C203.776035,26.7662102 202.03126,27.4791667 200,27.4791667 C197.96874,27.4791667 196.223965,26.7662102 194.765625,25.3402778 C193.307285,23.9143453 192.578125,22.2083431 192.578125,20.2222222 C192.578125,19.9166667 192.63021,19.5092609 192.734375,19 L190,19 L190,30 L210,30 L210,19 L207.265625,19 C207.36979,19.5092609 207.421875,19.9166667 207.421875,20.2222222 L207.421875,20.2222222 Z" id="instagram"></path>
            </g>
        </g>
    </g>
</svg>