<?xml version="1.0" encoding="UTF-8" standalone="no"?>
<svg width="40px" height="40px" viewBox="0 0 40 40" version="1.1" xmlns="http://www.w3.org/2000/svg" xmlns:xlink="http://www.w3.org/1999/xlink">
    <!-- Generator: Sketch 39.1 (31720) - http://www.bohemiancoding.com/sketch -->
    <title>pinterst@1x</title>
    <desc>Created with Sketch.</desc>
    <defs></defs>
    <g id="Page-1" stroke="none" stroke-width="1" fill="none" fill-rule="evenodd">
        <g id="MAD-MAX" transform="translate(-650.000000, -1335.000000)" fill="#000000">
            <g id="Group-2" transform="translate(410.000000, 1335.000000)">
                <path d="M260,0 C254.47914,0 249.765645,1.953105 245.859375,5.859375 C241.953105,9.765645 240,14.47914 240,20 C240,25.52086 241.953105,30.234355 245.859375,34.140625 C249.765645,38.0468945 254.47914,40 260,40 C265.52086,40 270.234355,38.0468945 274.140625,34.140625 C278.046895,30.234355 280,25.52086 280,20 C280,14.47914 278.046895,9.765645 274.140625,5.859375 C270.234355,1.953105 265.52086,0 260,0 L260,0 Z M261.5625,25.390625 C261.09375,25.390625 260.716145,25.32552 260.42969,25.19531 C260.14323,25.065105 259.752605,24.83073 259.25781,24.49219 C258.76302,24.153645 258.46354,23.958335 258.359375,23.90625 C257.942705,25.93751 257.47396,27.60416 256.953125,28.90625 C256.43229,30.20834 255.67709,31.249995 254.6875,32.03125 C254.42708,31.04166 254.375,29.843755 254.53125,28.4375 C254.6875,27.031245 254.84375,25.963545 255,25.234375 C255.15625,24.505205 255.403645,23.50261 255.74219,22.22656 C256.08073,20.950515 256.328125,19.97396 256.484375,19.296875 C256.11979,18.411455 255.97656,17.460945 256.05469,16.44531 C256.132815,15.42968 256.510415,14.583335 257.1875,13.90625 C257.864585,13.229165 258.64583,13.072915 259.53125,13.4375 C260.312505,13.75 260.690105,14.401035 260.66406,15.390625 C260.63802,16.380215 260.390625,17.382805 259.921875,18.39844 C259.453125,19.41407 259.25781,20.3776 259.33594,21.28906 C259.414065,22.200525 259.94791,22.760415 260.9375,22.96875 C262.031255,23.177085 263.00781,22.864585 263.86719,22.03125 C264.726565,21.197915 265.32552,20.156255 265.66406,18.90625 C266.002605,17.656245 266.09375,16.354175 265.9375,15 C265.78125,13.645825 265.338545,12.60417 264.609375,11.875 C263.619785,10.88541 262.40886,10.33854 260.97656,10.234375 C259.544265,10.13021 258.242195,10.39062 257.07031,11.015625 C255.89843,11.64063 254.9349,12.57812 254.17969,13.828125 C253.424475,15.07813 253.17708,16.432285 253.4375,17.890625 C253.489585,18.25521 253.658855,18.671875 253.94531,19.140625 C254.23177,19.609375 254.40104,19.98698 254.453125,20.27344 C254.50521,20.559895 254.375,21.093745 254.0625,21.875 C251.666655,21.354165 250.546875,19.505225 250.703125,16.328125 C250.75521,14.140615 251.588535,12.278655 253.203125,10.74219 C254.817715,9.20572 256.6927,8.307295 258.828125,8.046875 C261.432305,7.786455 263.73697,8.2552 265.74219,9.453125 C267.747405,10.65105 268.90625,12.39582 269.21875,14.6875 C269.63542,17.500015 269.10157,20.03905 267.61719,22.30469 C266.132805,24.570325 264.114595,25.59896 261.5625,25.390625 L261.5625,25.390625 Z" id="pinterst"></path>
            </g>
        </g>
    </g>
</svg>