<?xml version="1.0" encoding="UTF-8" standalone="no"?>
<svg width="40px" height="40px" viewBox="0 0 40 40" version="1.1" xmlns="http://www.w3.org/2000/svg" xmlns:xlink="http://www.w3.org/1999/xlink">
    <!-- Generator: Sketch 39.1 (31720) - http://www.bohemiancoding.com/sketch -->
    <title>twitter@1x</title>
    <desc>Created with Sketch.</desc>
    <defs></defs>
    <g id="Page-1" stroke="none" stroke-width="1" fill="none" fill-rule="evenodd">
        <g id="MAD-MAX" transform="translate(-470.000000, -1335.000000)" fill="#000000">
            <g id="Group-2" transform="translate(410.000000, 1335.000000)">
                <path d="M80,0 C74.47914,0 69.765645,1.953105 65.859375,5.859375 C61.9531055,9.765645 60,14.47914 60,20 C60,25.52086 61.9531055,30.234355 65.859375,34.140625 C69.765645,38.0468945 74.47914,40 80,40 C85.52086,40 90.234355,38.0468945 94.140625,34.140625 C98.046895,30.234355 100,25.52086 100,20 C100,14.47914 98.046895,9.765645 94.140625,5.859375 C90.234355,1.953105 85.52086,0 80,0 L80,0 Z M89.921875,15.546875 C89.97396,15.75521 90,15.96354 90,16.171875 C90,19.71356 88.72397,22.929675 86.171875,25.82031 C83.61978,28.71095 80.208355,30.15625 75.9375,30.15625 C73.229155,30.15625 70.72918,29.42709 68.4375,27.96875 C68.802085,28.020835 69.192705,28.046875 69.609375,28.046875 C71.84897,28.046875 73.8802,27.343755 75.703125,25.9375 C74.60937,25.885415 73.64584,25.54688 72.8125,24.921875 C71.979165,24.29687 71.40625,23.48959 71.09375,22.5 C71.40625,22.552085 71.71875,22.578125 72.03125,22.578125 C72.44792,22.578125 72.890625,22.52604 73.359375,22.421875 C72.213535,22.161455 71.263025,21.588545 70.50781,20.703125 C69.7526,19.817705 69.375,18.77605 69.375,17.578125 L69.375,17.5 C70.052085,17.91667 70.80729,18.125 71.640625,18.125 C70.1302,17.13541 69.375,15.78126 69.375,14.0625 C69.375,13.17708 69.609375,12.343755 70.078125,11.5625 C72.682305,14.791685 76.067685,16.510415 80.234375,16.71875 C80.13021,16.354165 80.078125,15.963545 80.078125,15.546875 C80.078125,14.1927 80.55989,13.03386 81.52344,12.07031 C82.486985,11.106765 83.645825,10.625 85,10.625 C86.45834,10.625 87.656245,11.14583 88.59375,12.1875 C89.73959,11.979165 90.781245,11.588545 91.71875,11.015625 C91.354165,12.21355 90.651045,13.124995 89.609375,13.75 C90.54688,13.645835 91.48437,13.38542 92.421875,12.96875 C91.74479,13.95834 90.911465,14.817705 89.921875,15.546875 L89.921875,15.546875 Z" id="twitter"></path>
            </g>
        </g>
    </g>
</svg>